<svg width="380" height="90" viewBox="0 0 380 90" fill="none" xmlns="http://www.w3.org/2000/svg">
<g filter="url(#filter0_b_10233_296)">
<path d="M0 0H380V58C380 75.6731 365.673 90 348 90H32C14.3269 90 0 75.6731 0 58V0Z" fill="white" fill-opacity="0.2"/>
</g>
<path d="M32.378 64.82V62.09H33.092C33.3067 61.7727 33.4793 61.4273 33.61 61.054C33.75 60.6713 33.848 60.2467 33.904 59.78C33.9693 59.3133 34.002 58.786 34.002 58.198V56.196H38.818V62.09H39.896V64.82H38.916V63H33.344V64.82H32.378ZM34.184 62.09H37.74V57.092H35.01V58.394C35.01 59.094 34.94 59.7707 34.8 60.424C34.66 61.0773 34.4547 61.6327 34.184 62.09ZM41.0272 63.154L40.6072 62.258C40.9245 62.1273 41.1858 61.9547 41.3912 61.74C41.6058 61.5253 41.7738 61.2547 41.8952 60.928C42.0258 60.592 42.1192 60.1813 42.1752 59.696C42.2312 59.2107 42.2592 58.6227 42.2592 57.932V56.196H47.2012V63H46.0672V57.106H43.3232V57.974C43.3232 58.7673 43.2812 59.458 43.1972 60.046C43.1132 60.634 42.9778 61.1333 42.7912 61.544C42.6138 61.9453 42.3758 62.2767 42.0772 62.538C41.7878 62.7993 41.4378 63.0047 41.0272 63.154ZM48.8842 63L49.9342 61.18C50.1116 60.872 50.3356 60.62 50.6062 60.424C50.8769 60.228 51.1476 60.13 51.4182 60.13H51.6002V60.256C51.0962 60.256 50.6622 60.1767 50.2982 60.018C49.9436 59.8593 49.6682 59.6307 49.4722 59.332C49.2856 59.024 49.1922 58.66 49.1922 58.24C49.1922 57.6147 49.3976 57.12 49.8082 56.756C50.2282 56.3827 50.8536 56.196 51.6842 56.196H54.7502V63H53.6722V60.41H52.6782C52.3049 60.41 51.9876 60.5033 51.7262 60.69C51.4742 60.8767 51.2689 61.1053 51.1102 61.376L50.1862 63H48.8842ZM51.8942 59.584H53.6722V56.994H51.8942C51.3436 56.994 50.9376 57.1107 50.6762 57.344C50.4149 57.568 50.2842 57.8807 50.2842 58.282C50.2842 58.6927 50.4149 59.0147 50.6762 59.248C50.9376 59.472 51.3436 59.584 51.8942 59.584ZM62.0008 63V57.106H59.5368V56.196H65.6128V57.106H63.1348V63H62.0008ZM69.8602 63.126C69.1415 63.126 68.5208 62.986 67.9982 62.706C67.4848 62.4167 67.0835 62.0107 66.7942 61.488C66.5142 60.9653 66.3742 60.34 66.3742 59.612C66.3742 58.9027 66.5142 58.2867 66.7942 57.764C67.0742 57.232 67.4568 56.8167 67.9422 56.518C68.4368 56.2193 69.0062 56.07 69.6502 56.07C70.2662 56.07 70.7935 56.2053 71.2322 56.476C71.6708 56.7467 72.0068 57.1293 72.2402 57.624C72.4828 58.1187 72.6042 58.7113 72.6042 59.402V59.836H67.2422V59.094H71.8482L71.6242 59.276C71.6242 58.5293 71.4562 57.9507 71.1202 57.54C70.7935 57.12 70.3128 56.91 69.6782 56.91C69.2022 56.91 68.7962 57.022 68.4602 57.246C68.1335 57.4607 67.8862 57.764 67.7182 58.156C67.5502 58.5387 67.4662 58.9867 67.4662 59.5V59.584C67.4662 60.1533 67.5548 60.634 67.7322 61.026C67.9188 61.418 68.1942 61.7167 68.5582 61.922C68.9222 62.118 69.3562 62.216 69.8602 62.216C70.2615 62.216 70.6488 62.1553 71.0222 62.034C71.4048 61.9033 71.7642 61.6933 72.1002 61.404L72.4922 62.202C72.1842 62.482 71.7922 62.706 71.3162 62.874C70.8402 63.042 70.3548 63.126 69.8602 63.126ZM73.3773 63L76.4293 59.192V59.78L73.5453 56.196H74.8893L77.0593 58.954H76.6673L78.8513 56.196H80.1813L77.3113 59.752V59.234L80.3493 63H79.0053L76.6533 60.046H77.0593L74.7213 63H73.3773ZM82.2376 64.596L81.7056 64.19C81.8736 64.0127 81.9996 63.8447 82.0836 63.686C82.1769 63.5367 82.2376 63.3827 82.2656 63.224C82.3029 63.0747 82.3216 62.9207 82.3216 62.762L82.5736 63H81.6496V61.572H83.0776V62.58C83.0776 62.832 83.0496 63.07 82.9936 63.294C82.9469 63.5273 82.8629 63.7513 82.7416 63.966C82.6202 64.1807 82.4522 64.3907 82.2376 64.596ZM88.6688 63V56.196H89.8028V59.038H91.0768L93.3028 56.196H94.5488L92.0008 59.5L91.6788 59.136C91.9402 59.164 92.1688 59.2293 92.3648 59.332C92.5608 59.4347 92.7475 59.5933 92.9248 59.808C93.1022 60.0133 93.2935 60.2933 93.4988 60.648L94.8988 63H93.6808L92.4488 60.942C92.2902 60.6807 92.1408 60.48 92.0008 60.34C91.8608 60.1907 91.7022 60.088 91.5248 60.032C91.3475 59.976 91.1282 59.948 90.8668 59.948H89.8028V63H88.6688ZM97.452 63V57.106H94.988V56.196H101.064V57.106H98.586V63H97.452ZM105.073 63.126C104.411 63.126 103.837 62.9813 103.351 62.692C102.866 62.4027 102.488 61.9967 102.217 61.474C101.956 60.942 101.825 60.3167 101.825 59.598C101.825 58.8793 101.956 58.2587 102.217 57.736C102.488 57.204 102.866 56.7933 103.351 56.504C103.837 56.2147 104.411 56.07 105.073 56.07C105.736 56.07 106.31 56.2147 106.795 56.504C107.281 56.7933 107.654 57.204 107.915 57.736C108.186 58.2587 108.321 58.8793 108.321 59.598C108.321 60.3167 108.186 60.942 107.915 61.474C107.654 61.9967 107.281 62.4027 106.795 62.692C106.31 62.9813 105.736 63.126 105.073 63.126ZM105.073 62.216C105.717 62.216 106.226 61.992 106.599 61.544C106.982 61.0867 107.173 60.4333 107.173 59.584C107.173 58.744 106.982 58.1 106.599 57.652C106.226 57.204 105.717 56.98 105.073 56.98C104.439 56.98 103.93 57.204 103.547 57.652C103.165 58.1 102.973 58.744 102.973 59.584C102.973 60.4333 103.165 61.0867 103.547 61.544C103.93 61.992 104.439 62.216 105.073 62.216ZM116.011 63.126C115.423 63.126 114.867 63.0513 114.345 62.902C113.831 62.7433 113.416 62.524 113.099 62.244L113.463 61.446C113.789 61.7073 114.172 61.908 114.611 62.048C115.049 62.1787 115.507 62.244 115.983 62.244C116.655 62.244 117.135 62.146 117.425 61.95C117.723 61.754 117.873 61.4647 117.873 61.082C117.873 60.7273 117.751 60.4567 117.509 60.27C117.266 60.074 116.916 59.976 116.459 59.976H114.849V59.122H116.319C116.72 59.122 117.037 59.0287 117.271 58.842C117.513 58.6553 117.635 58.394 117.635 58.058C117.635 57.7127 117.504 57.442 117.243 57.246C116.991 57.05 116.571 56.952 115.983 56.952C115.516 56.952 115.087 57.0127 114.695 57.134C114.303 57.246 113.929 57.4327 113.575 57.694L113.211 56.896C113.593 56.616 114.027 56.4107 114.513 56.28C115.007 56.14 115.544 56.07 116.123 56.07C116.981 56.07 117.625 56.238 118.055 56.574C118.493 56.91 118.713 57.3813 118.713 57.988C118.713 58.4173 118.563 58.7813 118.265 59.08C117.966 59.3787 117.569 59.556 117.075 59.612V59.43C117.457 59.4393 117.789 59.5187 118.069 59.668C118.349 59.808 118.563 60.004 118.713 60.256C118.871 60.4987 118.951 60.788 118.951 61.124C118.951 61.7307 118.703 62.216 118.209 62.58C117.714 62.944 116.981 63.126 116.011 63.126ZM122.872 63.126C122.405 63.126 121.985 63.0373 121.612 62.86C121.248 62.6733 120.958 62.4213 120.744 62.104C120.529 61.7867 120.422 61.432 120.422 61.04C120.422 60.536 120.548 60.1393 120.8 59.85C121.061 59.5607 121.486 59.3553 122.074 59.234C122.671 59.1127 123.483 59.052 124.51 59.052H125.14V59.794H124.524C123.954 59.794 123.478 59.8127 123.096 59.85C122.713 59.8873 122.41 59.9527 122.186 60.046C121.962 60.1393 121.803 60.2607 121.71 60.41C121.616 60.5593 121.57 60.746 121.57 60.97C121.57 61.3527 121.7 61.6653 121.962 61.908C122.232 62.1507 122.596 62.272 123.054 62.272C123.427 62.272 123.754 62.1833 124.034 62.006C124.323 61.8287 124.547 61.586 124.706 61.278C124.874 60.97 124.958 60.6153 124.958 60.214V58.618C124.958 58.0393 124.841 57.624 124.608 57.372C124.374 57.1107 123.992 56.98 123.46 56.98C123.049 56.98 122.652 57.0407 122.27 57.162C121.887 57.274 121.495 57.4607 121.094 57.722L120.702 56.896C120.944 56.728 121.22 56.5833 121.528 56.462C121.836 56.3313 122.158 56.2333 122.494 56.168C122.83 56.1027 123.152 56.07 123.46 56.07C124.048 56.07 124.533 56.168 124.916 56.364C125.298 56.5507 125.583 56.84 125.77 57.232C125.956 57.6147 126.05 58.1093 126.05 58.716V63H124.986V61.418H125.112C125.037 61.7727 124.892 62.076 124.678 62.328C124.472 62.58 124.216 62.776 123.908 62.916C123.6 63.056 123.254 63.126 122.872 63.126ZM131.133 63.126C130.461 63.126 129.877 62.9813 129.383 62.692C128.897 62.3933 128.519 61.9547 128.249 61.376C127.987 60.7973 127.857 60.088 127.857 59.248V58.198C127.857 57.6567 127.899 57.1713 127.983 56.742C128.067 56.3033 128.197 55.916 128.375 55.58C128.552 55.244 128.771 54.95 129.033 54.698C129.294 54.446 129.597 54.2313 129.943 54.054C130.297 53.8767 130.694 53.7273 131.133 53.606L133.555 52.92L133.933 53.858L131.217 54.586C130.461 54.7913 129.891 55.16 129.509 55.692C129.135 56.2147 128.949 56.8587 128.949 57.624V58.17H128.753C128.865 57.7593 129.042 57.4047 129.285 57.106C129.527 56.8073 129.826 56.5787 130.181 56.42C130.545 56.252 130.946 56.168 131.385 56.168C131.833 56.168 132.234 56.2473 132.589 56.406C132.953 56.5647 133.265 56.798 133.527 57.106C133.788 57.4047 133.989 57.764 134.129 58.184C134.278 58.604 134.353 59.08 134.353 59.612C134.353 60.3213 134.217 60.942 133.947 61.474C133.685 61.9967 133.312 62.4027 132.827 62.692C132.351 62.9813 131.786 63.126 131.133 63.126ZM131.091 62.216C131.753 62.216 132.271 61.9967 132.645 61.558C133.018 61.11 133.205 60.4707 133.205 59.64C133.205 58.828 133.018 58.198 132.645 57.75C132.271 57.302 131.758 57.078 131.105 57.078C130.451 57.078 129.938 57.302 129.565 57.75C129.191 58.1887 129.005 58.786 129.005 59.542C129.005 60.4193 129.187 61.0867 129.551 61.544C129.924 61.992 130.437 62.216 131.091 62.216ZM139.034 63.126C138.372 63.126 137.798 62.9813 137.312 62.692C136.827 62.4027 136.449 61.9967 136.178 61.474C135.917 60.942 135.786 60.3167 135.786 59.598C135.786 58.8793 135.917 58.2587 136.178 57.736C136.449 57.204 136.827 56.7933 137.312 56.504C137.798 56.2147 138.372 56.07 139.034 56.07C139.697 56.07 140.271 56.2147 140.756 56.504C141.242 56.7933 141.615 57.204 141.876 57.736C142.147 58.2587 142.282 58.8793 142.282 59.598C142.282 60.3167 142.147 60.942 141.876 61.474C141.615 61.9967 141.242 62.4027 140.756 62.692C140.271 62.9813 139.697 63.126 139.034 63.126ZM139.034 62.216C139.678 62.216 140.187 61.992 140.56 61.544C140.943 61.0867 141.134 60.4333 141.134 59.584C141.134 58.744 140.943 58.1 140.56 57.652C140.187 57.204 139.678 56.98 139.034 56.98C138.4 56.98 137.891 57.204 137.508 57.652C137.126 58.1 136.934 58.744 136.934 59.584C136.934 60.4333 137.126 61.0867 137.508 61.544C137.891 61.992 138.4 62.216 139.034 62.216ZM144.122 63V56.196H145.158V61.922H144.808L149.092 56.196H150.058V63H149.022V57.26H149.372L145.088 63H144.122ZM153.712 63V57.106H151.248V56.196H157.324V57.106H154.846V63H153.712ZM161.389 63.126C160.708 63.126 160.12 62.9767 159.625 62.678C159.13 62.3793 158.748 61.964 158.477 61.432C158.216 60.8907 158.085 60.2653 158.085 59.556C158.085 58.8373 158.216 58.2167 158.477 57.694C158.748 57.1713 159.13 56.77 159.625 56.49C160.12 56.21 160.708 56.07 161.389 56.07C161.809 56.07 162.224 56.1447 162.635 56.294C163.046 56.4433 163.386 56.6533 163.657 56.924L163.265 57.75C162.994 57.4887 162.696 57.2973 162.369 57.176C162.052 57.0547 161.748 56.994 161.459 56.994C160.75 56.994 160.204 57.218 159.821 57.666C159.438 58.1047 159.247 58.7393 159.247 59.57C159.247 60.382 159.438 61.026 159.821 61.502C160.204 61.9687 160.75 62.202 161.459 62.202C161.748 62.202 162.052 62.1413 162.369 62.02C162.696 61.8987 162.994 61.7027 163.265 61.432L163.657 62.258C163.386 62.5287 163.041 62.7433 162.621 62.902C162.21 63.0513 161.8 63.126 161.389 63.126ZM164.548 63L165.598 61.18C165.776 60.872 166 60.62 166.27 60.424C166.541 60.228 166.812 60.13 167.082 60.13H167.264V60.256C166.76 60.256 166.326 60.1767 165.962 60.018C165.608 59.8593 165.332 59.6307 165.136 59.332C164.95 59.024 164.856 58.66 164.856 58.24C164.856 57.6147 165.062 57.12 165.472 56.756C165.892 56.3827 166.518 56.196 167.348 56.196H170.414V63H169.336V60.41H168.342C167.969 60.41 167.652 60.5033 167.39 60.69C167.138 60.8767 166.933 61.1053 166.774 61.376L165.85 63H164.548ZM167.558 59.584H169.336V56.994H167.558C167.008 56.994 166.602 57.1107 166.34 57.344C166.079 57.568 165.948 57.8807 165.948 58.282C165.948 58.6927 166.079 59.0147 166.34 59.248C166.602 59.472 167.008 59.584 167.558 59.584ZM179.093 63.126C178.43 63.126 177.856 62.9813 177.371 62.692C176.886 62.4027 176.508 61.9967 176.237 61.474C175.976 60.942 175.845 60.3167 175.845 59.598C175.845 58.8793 175.976 58.2587 176.237 57.736C176.508 57.204 176.886 56.7933 177.371 56.504C177.856 56.2147 178.43 56.07 179.093 56.07C179.756 56.07 180.33 56.2147 180.815 56.504C181.3 56.7933 181.674 57.204 181.935 57.736C182.206 58.2587 182.341 58.8793 182.341 59.598C182.341 60.3167 182.206 60.942 181.935 61.474C181.674 61.9967 181.3 62.4027 180.815 62.692C180.33 62.9813 179.756 63.126 179.093 63.126ZM179.093 62.216C179.737 62.216 180.246 61.992 180.619 61.544C181.002 61.0867 181.193 60.4333 181.193 59.584C181.193 58.744 181.002 58.1 180.619 57.652C180.246 57.204 179.737 56.98 179.093 56.98C178.458 56.98 177.95 57.204 177.567 57.652C177.184 58.1 176.993 58.744 176.993 59.584C176.993 60.4333 177.184 61.0867 177.567 61.544C177.95 61.992 178.458 62.216 179.093 62.216ZM190.674 63.126C189.993 63.126 189.405 62.9767 188.91 62.678C188.416 62.3793 188.033 61.964 187.762 61.432C187.501 60.8907 187.37 60.2653 187.37 59.556C187.37 58.8373 187.501 58.2167 187.762 57.694C188.033 57.1713 188.416 56.77 188.91 56.49C189.405 56.21 189.993 56.07 190.674 56.07C191.094 56.07 191.51 56.1447 191.92 56.294C192.331 56.4433 192.672 56.6533 192.942 56.924L192.55 57.75C192.28 57.4887 191.981 57.2973 191.654 57.176C191.337 57.0547 191.034 56.994 190.744 56.994C190.035 56.994 189.489 57.218 189.106 57.666C188.724 58.1047 188.532 58.7393 188.532 59.57C188.532 60.382 188.724 61.026 189.106 61.502C189.489 61.9687 190.035 62.202 190.744 62.202C191.034 62.202 191.337 62.1413 191.654 62.02C191.981 61.8987 192.28 61.7027 192.55 61.432L192.942 62.258C192.672 62.5287 192.326 62.7433 191.906 62.902C191.496 63.0513 191.085 63.126 190.674 63.126ZM197.473 63.126C196.755 63.126 196.134 62.986 195.611 62.706C195.098 62.4167 194.697 62.0107 194.407 61.488C194.127 60.9653 193.987 60.34 193.987 59.612C193.987 58.9027 194.127 58.2867 194.407 57.764C194.687 57.232 195.07 56.8167 195.555 56.518C196.05 56.2193 196.619 56.07 197.263 56.07C197.879 56.07 198.407 56.2053 198.845 56.476C199.284 56.7467 199.62 57.1293 199.853 57.624C200.096 58.1187 200.217 58.7113 200.217 59.402V59.836H194.855V59.094H199.461L199.237 59.276C199.237 58.5293 199.069 57.9507 198.733 57.54C198.407 57.12 197.926 56.91 197.291 56.91C196.815 56.91 196.409 57.022 196.073 57.246C195.747 57.4607 195.499 57.764 195.331 58.156C195.163 58.5387 195.079 58.9867 195.079 59.5V59.584C195.079 60.1533 195.168 60.634 195.345 61.026C195.532 61.418 195.807 61.7167 196.171 61.922C196.535 62.118 196.969 62.216 197.473 62.216C197.875 62.216 198.262 62.1553 198.635 62.034C199.018 61.9033 199.377 61.6933 199.713 61.404L200.105 62.202C199.797 62.482 199.405 62.706 198.929 62.874C198.453 63.042 197.968 63.126 197.473 63.126ZM204.851 63.126C204.179 63.126 203.596 62.9813 203.101 62.692C202.616 62.3933 202.238 61.9547 201.967 61.376C201.706 60.7973 201.575 60.088 201.575 59.248V58.198C201.575 57.6567 201.617 57.1713 201.701 56.742C201.785 56.3033 201.916 55.916 202.093 55.58C202.271 55.244 202.49 54.95 202.751 54.698C203.013 54.446 203.316 54.2313 203.661 54.054C204.016 53.8767 204.413 53.7273 204.851 53.606L207.273 52.92L207.651 53.858L204.935 54.586C204.179 54.7913 203.61 55.16 203.227 55.692C202.854 56.2147 202.667 56.8587 202.667 57.624V58.17H202.471C202.583 57.7593 202.761 57.4047 203.003 57.106C203.246 56.8073 203.545 56.5787 203.899 56.42C204.263 56.252 204.665 56.168 205.103 56.168C205.551 56.168 205.953 56.2473 206.307 56.406C206.671 56.5647 206.984 56.798 207.245 57.106C207.507 57.4047 207.707 57.764 207.847 58.184C207.997 58.604 208.071 59.08 208.071 59.612C208.071 60.3213 207.936 60.942 207.665 61.474C207.404 61.9967 207.031 62.4027 206.545 62.692C206.069 62.9813 205.505 63.126 204.851 63.126ZM204.809 62.216C205.472 62.216 205.99 61.9967 206.363 61.558C206.737 61.11 206.923 60.4707 206.923 59.64C206.923 58.828 206.737 58.198 206.363 57.75C205.99 57.302 205.477 57.078 204.823 57.078C204.17 57.078 203.657 57.302 203.283 57.75C202.91 58.1887 202.723 58.786 202.723 59.542C202.723 60.4193 202.905 61.0867 203.269 61.544C203.643 61.992 204.156 62.216 204.809 62.216ZM212.991 63.126C212.272 63.126 211.652 62.986 211.129 62.706C210.616 62.4167 210.214 62.0107 209.925 61.488C209.645 60.9653 209.505 60.34 209.505 59.612C209.505 58.9027 209.645 58.2867 209.925 57.764C210.205 57.232 210.588 56.8167 211.073 56.518C211.568 56.2193 212.137 56.07 212.781 56.07C213.397 56.07 213.924 56.2053 214.363 56.476C214.802 56.7467 215.138 57.1293 215.371 57.624C215.614 58.1187 215.735 58.7113 215.735 59.402V59.836H210.373V59.094H214.979L214.755 59.276C214.755 58.5293 214.587 57.9507 214.251 57.54C213.924 57.12 213.444 56.91 212.809 56.91C212.333 56.91 211.927 57.022 211.591 57.246C211.264 57.4607 211.017 57.764 210.849 58.156C210.681 58.5387 210.597 58.9867 210.597 59.5V59.584C210.597 60.1533 210.686 60.634 210.863 61.026C211.05 61.418 211.325 61.7167 211.689 61.922C212.053 62.118 212.487 62.216 212.991 62.216C213.392 62.216 213.78 62.1553 214.153 62.034C214.536 61.9033 214.895 61.6933 215.231 61.404L215.623 62.202C215.315 62.482 214.923 62.706 214.447 62.874C213.971 63.042 213.486 63.126 212.991 63.126Z" fill="#FDFDFD"/>
<path d="M33.848 42V25.08H36.704V37.704H36.152L45.8 25.08H48.104V42H45.248V29.352H45.776L36.128 42H33.848ZM40.952 23.76C40.104 23.76 39.352 23.624 38.696 23.352C38.056 23.064 37.52 22.672 37.088 22.176C36.672 21.664 36.376 21.072 36.2 20.4L37.736 19.872C38.056 20.656 38.472 21.224 38.984 21.576C39.496 21.912 40.16 22.08 40.976 22.08C41.808 22.08 42.472 21.904 42.968 21.552C43.48 21.2 43.912 20.648 44.264 19.896L45.752 20.4C45.384 21.504 44.776 22.344 43.928 22.92C43.096 23.48 42.104 23.76 40.952 23.76ZM57.0331 42.24C55.8171 42.24 54.7611 41.992 53.8651 41.496C52.9691 41 52.2731 40.296 51.7771 39.384C51.2811 38.456 51.0331 37.368 51.0331 36.12C51.0331 34.872 51.2811 33.792 51.7771 32.88C52.2731 31.968 52.9691 31.264 53.8651 30.768C54.7611 30.272 55.8171 30.024 57.0331 30.024C58.2491 30.024 59.3051 30.272 60.2011 30.768C61.0971 31.264 61.7931 31.968 62.2891 32.88C62.7851 33.792 63.0331 34.872 63.0331 36.12C63.0331 37.368 62.7851 38.456 62.2891 39.384C61.7931 40.296 61.0971 41 60.2011 41.496C59.3051 41.992 58.2491 42.24 57.0331 42.24ZM57.0331 39.96C57.9291 39.96 58.6491 39.64 59.1931 39C59.7371 38.344 60.0091 37.384 60.0091 36.12C60.0091 34.84 59.7371 33.888 59.1931 33.264C58.6491 32.624 57.9291 32.304 57.0331 32.304C56.1371 32.304 55.4171 32.624 54.8731 33.264C54.3291 33.888 54.0571 34.84 54.0571 36.12C54.0571 37.384 54.3291 38.344 54.8731 39C55.4171 39.64 56.1371 39.96 57.0331 39.96ZM65.8134 42V30.264H74.6934V32.616H68.8134V42H65.8134ZM80.6701 42.24C79.8221 42.24 79.0621 42.08 78.3901 41.76C77.7341 41.424 77.2141 40.976 76.8301 40.416C76.4621 39.856 76.2781 39.224 76.2781 38.52C76.2781 37.656 76.5021 36.976 76.9501 36.48C77.3981 35.968 78.1261 35.6 79.1341 35.376C80.1421 35.152 81.4941 35.04 83.1901 35.04H84.3901V36.768H83.2141C82.4621 36.768 81.8301 36.8 81.3181 36.864C80.8061 36.912 80.3901 37 80.0701 37.128C79.7661 37.24 79.5421 37.4 79.3981 37.608C79.2701 37.816 79.2061 38.072 79.2061 38.376C79.2061 38.904 79.3901 39.336 79.7581 39.672C80.1261 40.008 80.6381 40.176 81.2941 40.176C81.8221 40.176 82.2861 40.056 82.6861 39.816C83.1021 39.56 83.4301 39.216 83.6701 38.784C83.9101 38.352 84.0301 37.856 84.0301 37.296V34.536C84.0301 33.736 83.8541 33.16 83.5021 32.808C83.1501 32.456 82.5581 32.28 81.7261 32.28C81.0701 32.28 80.3981 32.384 79.7101 32.592C79.0221 32.784 78.3261 33.088 77.6221 33.504L76.7581 31.464C77.1741 31.176 77.6621 30.928 78.2221 30.72C78.7981 30.496 79.3981 30.328 80.0221 30.216C80.6621 30.088 81.2621 30.024 81.8221 30.024C82.9741 30.024 83.9181 30.2 84.6541 30.552C85.4061 30.904 85.9661 31.44 86.3341 32.16C86.7021 32.864 86.8861 33.776 86.8861 34.896V42H84.0781V39.504H84.2701C84.1581 40.064 83.9341 40.552 83.5981 40.968C83.2781 41.368 82.8701 41.68 82.3741 41.904C81.8781 42.128 81.3101 42.24 80.6701 42.24ZM96.704 42V30.264H103.04C104.048 30.264 104.864 30.384 105.488 30.624C106.128 30.864 106.592 31.216 106.88 31.68C107.168 32.128 107.312 32.68 107.312 33.336C107.312 34.072 107.056 34.696 106.544 35.208C106.048 35.704 105.384 36.008 104.552 36.12V35.784C105.256 35.816 105.84 35.96 106.304 36.216C106.768 36.472 107.12 36.816 107.36 37.248C107.6 37.664 107.72 38.152 107.72 38.712C107.72 39.72 107.336 40.52 106.568 41.112C105.8 41.704 104.688 42 103.232 42H96.704ZM99.488 40.152H102.968C103.624 40.152 104.12 40.016 104.456 39.744C104.808 39.472 104.984 39.072 104.984 38.544C104.984 38.016 104.808 37.616 104.456 37.344C104.12 37.072 103.624 36.936 102.968 36.936H99.488V40.152ZM99.488 35.088H102.752C103.328 35.088 103.776 34.96 104.096 34.704C104.416 34.432 104.576 34.056 104.576 33.576C104.576 33.096 104.416 32.736 104.096 32.496C103.776 32.24 103.328 32.112 102.752 32.112H99.488V35.088ZM116.813 42V30.264H125.693V32.616H119.813V42H116.813ZM133.158 42.24C131.942 42.24 130.886 41.992 129.99 41.496C129.094 41 128.398 40.296 127.902 39.384C127.406 38.456 127.158 37.368 127.158 36.12C127.158 34.872 127.406 33.792 127.902 32.88C128.398 31.968 129.094 31.264 129.99 30.768C130.886 30.272 131.942 30.024 133.158 30.024C134.374 30.024 135.43 30.272 136.326 30.768C137.222 31.264 137.918 31.968 138.414 32.88C138.91 33.792 139.158 34.872 139.158 36.12C139.158 37.368 138.91 38.456 138.414 39.384C137.918 40.296 137.222 41 136.326 41.496C135.43 41.992 134.374 42.24 133.158 42.24ZM133.158 39.96C134.054 39.96 134.774 39.64 135.318 39C135.862 38.344 136.134 37.384 136.134 36.12C136.134 34.84 135.862 33.888 135.318 33.264C134.774 32.624 134.054 32.304 133.158 32.304C132.262 32.304 131.542 32.624 130.998 33.264C130.454 33.888 130.182 34.84 130.182 36.12C130.182 37.384 130.454 38.344 130.998 39C131.542 39.64 132.262 39.96 133.158 39.96ZM141.962 46.32V30.264H144.89V32.736H144.65C144.89 31.92 145.378 31.264 146.114 30.768C146.866 30.272 147.738 30.024 148.73 30.024C149.754 30.024 150.65 30.272 151.418 30.768C152.202 31.264 152.81 31.968 153.242 32.88C153.674 33.776 153.89 34.856 153.89 36.12C153.89 37.368 153.674 38.456 153.242 39.384C152.81 40.296 152.21 41 151.442 41.496C150.674 41.992 149.77 42.24 148.73 42.24C147.754 42.24 146.898 42 146.162 41.52C145.426 41.024 144.93 40.384 144.674 39.6H144.962V46.32H141.962ZM147.89 39.96C148.786 39.96 149.506 39.64 150.05 39C150.594 38.344 150.866 37.384 150.866 36.12C150.866 34.84 150.594 33.888 150.05 33.264C149.506 32.624 148.786 32.304 147.89 32.304C146.994 32.304 146.274 32.624 145.73 33.264C145.186 33.888 144.914 34.84 144.914 36.12C144.914 37.384 145.186 38.344 145.73 39C146.274 39.64 146.994 39.96 147.89 39.96ZM160.569 42.24C159.721 42.24 158.961 42.08 158.289 41.76C157.633 41.424 157.113 40.976 156.729 40.416C156.361 39.856 156.177 39.224 156.177 38.52C156.177 37.656 156.401 36.976 156.849 36.48C157.297 35.968 158.025 35.6 159.033 35.376C160.041 35.152 161.393 35.04 163.089 35.04H164.289V36.768H163.113C162.361 36.768 161.729 36.8 161.217 36.864C160.705 36.912 160.289 37 159.969 37.128C159.665 37.24 159.441 37.4 159.297 37.608C159.169 37.816 159.105 38.072 159.105 38.376C159.105 38.904 159.289 39.336 159.657 39.672C160.025 40.008 160.537 40.176 161.193 40.176C161.721 40.176 162.185 40.056 162.585 39.816C163.001 39.56 163.329 39.216 163.569 38.784C163.809 38.352 163.929 37.856 163.929 37.296V34.536C163.929 33.736 163.753 33.16 163.401 32.808C163.049 32.456 162.457 32.28 161.625 32.28C160.969 32.28 160.297 32.384 159.609 32.592C158.921 32.784 158.225 33.088 157.521 33.504L156.657 31.464C157.073 31.176 157.561 30.928 158.121 30.72C158.697 30.496 159.297 30.328 159.921 30.216C160.561 30.088 161.161 30.024 161.721 30.024C162.873 30.024 163.817 30.2 164.553 30.552C165.305 30.904 165.865 31.44 166.233 32.16C166.601 32.864 166.785 33.776 166.785 34.896V42H163.977V39.504H164.169C164.057 40.064 163.833 40.552 163.497 40.968C163.177 41.368 162.769 41.68 162.273 41.904C161.777 42.128 161.209 42.24 160.569 42.24ZM168.526 42L174.022 35.232V36.648L168.838 30.264H172.342L175.702 34.56H174.646L178.006 30.264H181.51L176.326 36.624V35.28L181.822 42H178.294L174.646 37.392H175.654L172.03 42H168.526Z" fill="#FDFDFD"/>
<rect x="262" y="25" width="86" height="40" rx="4" fill="white" fill-opacity="0.3"/>
<path d="M279.6 52V50.1L284.16 45.24C284.573 44.8 284.9 44.3933 285.14 44.02C285.393 43.6467 285.58 43.2867 285.7 42.94C285.82 42.5933 285.88 42.2467 285.88 41.9C285.88 41.2333 285.667 40.7267 285.24 40.38C284.827 40.0333 284.22 39.86 283.42 39.86C282.793 39.86 282.18 39.98 281.58 40.22C280.993 40.4467 280.427 40.8067 279.88 41.3L279.02 39.38C279.58 38.8733 280.28 38.4667 281.12 38.16C281.96 37.8533 282.833 37.7 283.74 37.7C284.753 37.7 285.607 37.8533 286.3 38.16C286.993 38.4667 287.52 38.9133 287.88 39.5C288.24 40.0867 288.42 40.8 288.42 41.64C288.42 42.0667 288.367 42.4867 288.26 42.9C288.167 43.3 288.013 43.7 287.8 44.1C287.6 44.5 287.34 44.9133 287.02 45.34C286.713 45.7533 286.34 46.1867 285.9 46.64L282.14 50.56V49.88H288.96V52H279.6ZM295.712 52.2C295.072 52.2 294.446 52.1333 293.832 52C293.232 51.88 292.672 51.7 292.152 51.46C291.632 51.22 291.179 50.9333 290.792 50.6L291.632 48.64C292.259 49.12 292.899 49.4733 293.552 49.7C294.206 49.9267 294.899 50.04 295.632 50.04C296.219 50.04 296.712 49.96 297.112 49.8C297.512 49.64 297.812 49.4 298.012 49.08C298.226 48.76 298.332 48.3733 298.332 47.92C298.332 47.2533 298.106 46.76 297.652 46.44C297.212 46.1067 296.566 45.94 295.712 45.94H293.452V43.82H295.472C295.979 43.82 296.412 43.74 296.772 43.58C297.132 43.4067 297.412 43.1667 297.612 42.86C297.812 42.5533 297.912 42.18 297.912 41.74C297.912 41.1267 297.706 40.66 297.292 40.34C296.892 40.02 296.306 39.86 295.532 39.86C294.839 39.86 294.192 39.98 293.592 40.22C292.992 40.4467 292.419 40.8067 291.872 41.3L291.032 39.38C291.592 38.8467 292.292 38.4333 293.132 38.14C293.972 37.8467 294.846 37.7 295.752 37.7C296.726 37.7 297.559 37.8533 298.252 38.16C298.946 38.4533 299.472 38.88 299.832 39.44C300.206 39.9867 300.392 40.6533 300.392 41.44C300.392 42.28 300.159 43.0067 299.692 43.62C299.226 44.22 298.586 44.62 297.772 44.82V44.58C298.412 44.6867 298.959 44.9 299.412 45.22C299.866 45.54 300.212 45.9467 300.452 46.44C300.692 46.9333 300.812 47.5 300.812 48.14C300.812 48.9667 300.606 49.6867 300.192 50.3C299.779 50.9133 299.192 51.3867 298.432 51.72C297.672 52.04 296.766 52.2 295.712 52.2ZM307.984 52.2C306.878 52.2 305.938 51.92 305.164 51.36C304.404 50.7867 303.824 49.96 303.424 48.88C303.038 47.8 302.844 46.48 302.844 44.92C302.844 43.3467 303.038 42.0267 303.424 40.96C303.824 39.88 304.404 39.0667 305.164 38.52C305.938 37.9733 306.878 37.7 307.984 37.7C309.104 37.7 310.044 37.9733 310.804 38.52C311.578 39.0667 312.158 39.8733 312.544 40.94C312.931 42.0067 313.124 43.3267 313.124 44.9C313.124 46.46 312.924 47.7867 312.524 48.88C312.138 49.96 311.564 50.7867 310.804 51.36C310.044 51.92 309.104 52.2 307.984 52.2ZM307.984 50.1C308.891 50.1 309.558 49.6867 309.984 48.86C310.424 48.02 310.644 46.7 310.644 44.9C310.644 43.1133 310.424 41.82 309.984 41.02C309.558 40.2067 308.891 39.8 307.984 39.8C307.091 39.8 306.424 40.2067 305.984 41.02C305.544 41.82 305.324 43.12 305.324 44.92C305.324 46.7067 305.544 48.02 305.984 48.86C306.424 49.6867 307.091 50.1 307.984 50.1ZM324.567 54.3V51.68L325.027 52.12C324.054 52.0933 323.134 51.9467 322.267 51.68C321.414 51.4 320.674 51.0133 320.047 50.52L320.827 48.5C321.241 48.8067 321.681 49.0733 322.147 49.3C322.627 49.5133 323.127 49.68 323.647 49.8C324.181 49.9067 324.747 49.96 325.347 49.96C326.321 49.96 327.034 49.7867 327.487 49.44C327.941 49.0933 328.167 48.66 328.167 48.14C328.167 47.6733 328.014 47.3 327.707 47.02C327.401 46.74 326.854 46.5133 326.067 46.34L323.947 45.88C322.747 45.6133 321.841 45.1733 321.227 44.56C320.627 43.9333 320.327 43.1067 320.327 42.08C320.327 41.2933 320.521 40.5933 320.907 39.98C321.294 39.3533 321.834 38.8533 322.527 38.48C323.221 38.1067 324.034 37.8867 324.967 37.82L324.567 38.12V35.6H326.567V38.12L326.147 37.8C326.907 37.84 327.654 37.9933 328.387 38.26C329.134 38.5267 329.754 38.9133 330.247 39.42L329.487 41.34C328.981 40.8733 328.401 40.5267 327.747 40.3C327.094 40.06 326.381 39.94 325.607 39.94C324.781 39.94 324.114 40.1333 323.607 40.52C323.114 40.8933 322.867 41.3867 322.867 42C322.867 42.4533 323.021 42.82 323.327 43.1C323.634 43.38 324.127 43.5933 324.807 43.74L326.927 44.2C328.207 44.48 329.154 44.9267 329.767 45.54C330.394 46.14 330.707 46.94 330.707 47.94C330.707 48.7133 330.514 49.4 330.127 50C329.741 50.5867 329.207 51.06 328.527 51.42C327.861 51.7667 327.081 51.9867 326.187 52.08L326.567 51.66V54.3H324.567Z" fill="#FDFDFD"/>
<defs>
<filter id="filter0_b_10233_296" x="-6" y="-6" width="392" height="102" filterUnits="userSpaceOnUse" color-interpolation-filters="sRGB">
<feFlood flood-opacity="0" result="BackgroundImageFix"/>
<feGaussianBlur in="BackgroundImageFix" stdDeviation="3"/>
<feComposite in2="SourceAlpha" operator="in" result="effect1_backgroundBlur_10233_296"/>
<feBlend mode="normal" in="SourceGraphic" in2="effect1_backgroundBlur_10233_296" result="shape"/>
</filter>
</defs>
</svg>
